#!OML:ASF Y:\EmotionMaleHayes\Project 1\Capture day 1\Session 1\Male1.ASF
:FULLY-SPECIFIED
:DEGREES
652
root 7.46828 16.2351 5.61492 -177.558 28.7058 -171.454
lowerback 9.41467 2.92987 7.40322
upperback 3.12688 4.83245 0.887701
thorax -1.47817 2.53818 -3.71027
lowerneck -20.1068 -4.20588 -0.570152
upperneck 28.5054 -6.20516 4.02329
head 13.0634 -1.85123 0.687862
rclavicle -9.34288e-015 -5.18828e-014
rhumerus -10.4756 10.1033 -73.8371
rradius 48.1238
rwrist -4.65723
rhand -15.3712 -32.0277
rfingers 7.12502
rthumb 10.8068 -61.7297
lclavicle -9.34288e-015 -5.18828e-014
lhumerus -45.2357 18.1136 60.0136
lradius 16.7577
lwrist -29.1299
lhand -10.7879 -25.3444
lfingers 7.12502
lthumb 15.2248 4.07541
rfemur 25.9258 4.18568 25.5899
rtibia 9.56484
rfoot -23.2008 3.50356
rtoes -6.03254
lfemur -24.8569 5.45489 -3.93347
ltibia 15.7082
lfoot -6.08307 4.27064
ltoes -5.69498
653
root 7.52587 16.2253 5.42082 -177.837 28.7372 -172.122
lowerback 9.21754 2.97952 6.78554
upperback 3.09559 4.80904 0.734902
thorax -1.44357 2.51946 -3.51241
lowerneck -20.0613 -4.27802 -0.603569
upperneck 28.4924 -6.31612 4.08808
head 13.0561 -1.89433 0.700382
rclavicle 7.99611e-014 -3.97569e-016
rhumerus -11.1446 10.3466 -74.2538
rradius 48.3641
rwrist -4.35576
rhand -15.2186 -31.7287
rfingers 7.12502
rthumb 10.9539 -61.423
lclavicle 7.99611e-014 -3.97569e-016
lhumerus -45.1737 18.9275 59.6883
lradius 16.5203
lwrist -29.9717
lhand -10.6842 -25.3311
lfingers 7.12502
lthumb 15.3247 4.08112
rfemur 26.4475 4.74953 25.1452
rtibia 9.89851
rfoot -22.7145 2.96086
rtoes -7.26837
lfemur -24.6714 4.82205 -4.65971
ltibia 15.9874
lfoot -4.85346 4.67797
ltoes 1.50879
654
root 7.57985 16.2239 5.22939 -178.139 28.7306 -172.996
lowerback 9.02068 3.06456 6.10032
upperback 3.05003 4.8238 0.439058
thorax -1.41247 2.51849 -3.42822
lowerneck -20.134 -4.46942 -0.646282
upperneck 28.5337 -6.63815 4.27155
head 13.109 -2.00875 0.722678
rclavicle -3.56818e-014 9.54166e-015
rhumerus -11.9323 10.5786 -74.7602
rradius 48.6728
rwrist -4.53694
rhand -15.1057 -31.4153
rfingers 7.12502
rthumb 11.0628 -61.1037
lclavicle -3.56818e-014 9.54166e-015
lhumerus -44.9792 19.9722 59.184
lradius 16.3243
lwrist -30.9972
lhand -10.5273 -25.2685
lfingers 7.12502
lthumb 15.4759 4.13205
rfemur 26.7446 5.31091 24.4056
rtibia 10.4713
rfoot -22.4002 2.73131
rtoes -9.18392
lfemur -24.7208 4.41852 -5.68542
ltibia 16.4755
lfoot -4.16579 5.01661
ltoes 0.0599557
655
root 7.63141 16.2269 5.04075 -178.362 28.6101 -173.933
lowerback 8.74585 3.10551 5.40732
upperback 2.97865 4.77709 0.101628
thorax -1.36811 2.48662 -3.37229
lowerneck -20.2434 -4.62833 -0.860745
upperneck 28.5846 -6.9128 4.64402
head 13.1898 -2.09273 0.854856
rclavicle 6.53008e-014 1.15295e-014
rhumerus -12.7997 10.2396 -75.5348
rradius 48.9608
rwrist -4.31784
rhand -15.1037 -31.1974
rfingers 7.12502
rthumb 11.0647 -60.8858
lclavicle 6.53008e-014 1.15295e-014
lhumerus -44.65 20.7376 58.9778
lradius 16.194
lwrist -31.7107
lhand -10.7852 -24.9047
lfingers 7.12502
lthumb 15.2274 4.51486
rfemur 26.8646 6.20246 23.8969
rtibia 11.0728
rfoot -21.774 2.77034
rtoes -4.64985
lfemur -25.2327 4.5994 -6.95956
ltibia 17.6252
lfoot -3.59352 4.57626
ltoes -4.57755
656
root 7.68421 16.2326 4.84686 -178.516 28.4832 -174.621
lowerback 8.43879 3.12251 4.85451
upperback 2.93119 4.72175 -0.0791447
thorax -1.28329 2.45427 -3.22789
lowerneck -20.2484 -4.75171 -1.20111
upperneck 28.5721 -7.07149 4.95692
head 13.2218 -2.15485 1.00612
rclavicle -3.80673e-014 7.95139e-016
rhumerus -13.7369 9.22333 -76.3874
rradius 49.1906
rwrist -3.2188
rhand -14.9579 -30.6796
rfingers 7.12502
rthumb 11.2054 -60.3603
lclavicle -3.80673e-014 7.95139e-016
lhumerus -44.2309 20.8415 59.4563
lradius 16.1654
lwrist -31.6559
lhand -11.2028 -24.5414
lfingers 7.12502
lthumb 14.8251 4.9083
rfemur 26.4218 5.61715 22.2409
rtibia 12.2493
rfoot -20.3654 5.10333
rtoes 5.75137
lfemur -25.6516 4.271 -7.90374
ltibia 19.0562
lfoot -3.14765 4.34788
ltoes 0.213264
657
root 7.74171 16.2428 4.6514 -178.537 28.3672 -174.893
lowerback 8.22136 3.15431 4.71003
upperback 2.85955 4.73102 -0.200134
thorax -1.23799 2.45496 -3.26065
lowerneck -20.1737 -4.89661 -1.34253
upperneck 28.5423 -7.27672 5.11238
head 13.2162 -2.23839 1.0559
rclavicle -8.0309e-014 1.47101e-014
rhumerus -14.9301 10.1277 -76.7956
rradius 49.5533
rwrist -3.64916
rhand -14.9989 -30.4552
rfingers 7.12502
rthumb 11.1658 -60.1381
lclavicle -8.0309e-014 1.47101e-014
lhumerus -43.7736 20.9858 59.7638
lradius 16.1139
lwrist -31.8311
lhand -11.133 -24.75
lfingers 7.12502
lthumb 14.8924 4.69472
rfemur 26.5049 5.89025 22.2927
rtibia 13.3382
rfoot -19.9447 3.34277
rtoes -4.34185
lfemur -25.929 3.75868 -8.3641
ltibia 20.6494
lfoot -2.94957 4.29691
ltoes -0.85928
658
root 7.7922 16.2561 4.45063 -178.999 28.2633 -175.968
lowerback 8.11266 3.23698 4.08219
upperback 2.7848 4.77019 -0.654958
thorax -1.26432 2.46871 -3.37941
lowerneck -20.0884 -5.05278 -1.24244
upperneck 28.47 -7.57888 5.27071
head 13.1858 -2.33673 1.04953
rclavicle -2.83268e-015 1.98785e-015
rhumerus -16.2192 9.91544 -77.4743
rradius 49.7883
rwrist -3.21684
rhand -14.612 -30.195
rfingers 7.12502
rthumb 11.5389 -59.8573
lclavicle -2.83268e-015 1.98785e-015
lhumerus -43.1952 20.9487 60.0616
lradius 16.1657
lwrist -31.9166
lhand -11.1108 -24.9775
lfingers 7.12502
lthumb 14.9137 4.4656
rfemur 26.8095 6.72839 21.8551
rtibia 14.1959
rfoot -18.975 1.92755
rtoes -9.69657
lfemur -25.9213 3.0656 -9.73888
ltibia 21.9665
lfoot -3.25338 4.39404
ltoes -1.16731
659
root 7.83973 16.2727 4.24994 -179.627 28.2498 -177.204
lowerback 8.05564 3.29389 3.10726
upperback 2.77159 4.76146 -0.967217
thorax -1.30097 2.46088 -3.15557
lowerneck -20.0492 -5.18751 -1.43381
upperneck 28.4555 -7.75587 5.42809
head 13.1966 -2.41298 1.11257
rclavicle 1.26228e-014 -4.37326e-015
rhumerus -17.4363 9.81477 -78.092
rradius 49.9902
rwrist -3.0543
rhand -14.768 -29.9675
rfingers 7.12502
rthumb 11.3885 -59.6382
lclavicle 1.26228e-014 -4.37326e-015
lhumerus -42.6001 20.4426 61.1832
lradius 16.3549
lwrist -30.9024
lhand -11.6233 -24.6651
lfingers 7.12502
lthumb 14.42 4.81394
rfemur 26.5267 6.74788 20.3077
rtibia 15.8707
rfoot -17.5481 2.25716
rtoes -8.75088
lfemur -25.5984 2.65011 -11.2867
ltibia 22.9044
lfoot -3.51403 4.44694
ltoes -1.17095
660
root 7.89578 16.2954 4.0605 -179.624 28.325 -177.038
lowerback 8.09494 3.26987 3.09574
upperback 2.73017 4.72967 -0.783871
thorax -1.3847 2.43987 -2.96272
lowerneck -19.9451 -5.27963 -1.91662
upperneck 28.4642 -7.77726 5.60355
head 13.2109 -2.45352 1.25995
rclavicle -1.31198e-014 -1.19271e-015
rhumerus -18.642 10.5417 -78.5897
rradius 50.1547
rwrist -3.39142
rhand -15.3221 -30.1133
rfingers 7.12502
rthumb 10.8541 -59.8128
lclavicle -1.31198e-014 -1.19271e-015
lhumerus -42.2965 21.5287 61.3813
lradius 16.1714
lwrist -31.4909
lhand -11.8793 -24.7901
lfingers 7.12502
lthumb 14.1733 4.70639
rfemur 26.1675 7.15071 20.6748
rtibia 17.6161
rfoot -15.901 1.99885
rtoes -6.0581
lfemur -25.2351 2.99297 -11.2593
ltibia 23.6953
lfoot -3.46037 4.39952
ltoes -2.84365
661
root 7.94967 16.3199 3.87224 -179.643 28.3652 -176.74
lowerback 8.27876 3.28579 3.45223
upperback 2.67578 4.7856 -0.729742
thorax -1.51347 2.46438 -3.12521
lowerneck -19.8295 -5.45923 -2.269
upperneck 28.4775 -7.9906 5.85958
head 13.234 -2.54783 1.38438
rclavicle -8.59744e-015 -2.38542e-015
rhumerus -19.9887 11.0245 -79.2
rradius 50.2178
rwrist -3.54516
rhand -15.1274 -30.1934
rfingers 7.12502
rthumb 11.0419 -59.8829
lclavicle -8.59744e-015 -2.38542e-015
lhumerus -42.1436 24.1548 60.1978
lradius 15.6997
lwrist -34.2399
lhand -11.8559 -25.4798
lfingers 7.12502
lthumb 14.1958 4.01516
rfemur 25.541 7.46526 21.2166
rtibia 19.9851
rfoot -14.2477 1.62734
rtoes -4.71398
lfemur -24.6909 3.32096 -11.1017
ltibia 24.2802
lfoot -3.42086 4.42678
ltoes -3.33641
